<svg
   width="32"
   height="32"
   viewBox="0 0 32 32"
   version="1.1"
   xmlns="http://www.w3.org/2000/svg"
   xmlns:svg="http://www.w3.org/2000/svg">
  <g
     id="layer1">
    <path
       id="path11480"
       style="fill:#ffffff"
       d="M 16.017578 0 C 7.171061 2.3684758e-15 0 7.1710606 0 16.017578 C 0 24.864095 7.171061 32.035156 16.017578 32.035156 C 24.864091 32.035156 32.035156 24.864095 32.035156 16.017578 C 32.035156 7.1710606 24.864091 0 16.017578 0 z M 16.001953 5.9414062 C 17.465437 5.9414062 18.645995 6.2811258 19.542969 6.9609375 C 20.572128 7.7351675 21.085938 8.8255893 21.085938 10.232422 C 21.085938 10.99721 20.859458 11.771016 20.40625 12.554688 C 20.09467 13.073988 19.570447 13.736507 18.833984 14.539062 C 18.040871 15.417153 17.502005 16.067305 17.21875 16.492188 C 16.368985 17.776276 15.945312 19.288094 15.945312 21.025391 C 15.945312 21.138693 15.869819 21.195312 15.71875 21.195312 L 14.982422 21.195312 C 14.831353 21.195312 14.755859 21.138693 14.755859 21.025391 C 14.718092 20.761019 14.699219 20.501023 14.699219 20.246094 C 14.699219 19.150842 14.820919 18.219866 15.066406 17.455078 C 15.39687 16.369268 15.981943 15.266156 16.822266 14.142578 C 17.435985 13.311697 17.880484 12.560995 18.154297 11.890625 C 18.305366 11.50351 18.380859 11.115631 18.380859 10.728516 C 18.380859 9.5954961 18.09353 8.727324 17.517578 8.1230469 C 16.96051 7.5565371 16.222498 7.2734375 15.306641 7.2734375 C 14.749573 7.2734375 14.20843 7.3993675 13.679688 7.6542969 C 13.604153 7.6920642 13.555993 7.7675574 13.537109 7.8808594 L 13.126953 10.035156 C 13.126953 10.110691 13.078793 10.148438 12.984375 10.148438 L 12.091797 10.148438 C 11.987937 10.148438 11.9375 10.110691 11.9375 10.035156 L 11.9375 6.8046875 C 11.9375 6.7291529 11.987937 6.6829462 12.091797 6.6640625 C 13.177607 6.2769475 14.127456 6.0504678 14.939453 5.984375 C 15.260475 5.9560495 15.614838 5.9414062 16.001953 5.9414062 z M 15.363281 23.134766 C 15.778722 23.134766 16.147728 23.300395 16.46875 23.630859 C 16.799214 23.951882 16.964844 24.320888 16.964844 24.736328 C 16.964844 25.151769 16.799214 25.518822 16.46875 25.839844 C 16.147728 26.151424 15.778722 26.306641 15.363281 26.306641 C 14.721237 26.306641 14.245174 25.981564 13.933594 25.330078 C 13.839175 25.150683 13.792969 24.95349 13.792969 24.736328 C 13.792969 24.330329 13.952415 23.961323 14.273438 23.630859 C 14.59446 23.300395 14.957283 23.134766 15.363281 23.134766 z " />
  </g>
</svg>
